<svg width="207" height="34" viewBox="0 0 207 34" fill="none" xmlns="http://www.w3.org/2000/svg">
<path d="M204.771 0L183.751 0.0168312L183.097 1.02629L182.839 0.0336544H161.689L161.172 1.17771L160.974 0.0336544L139.635 0.0588851L139.265 1.41325L139.128 0.0588851L117.59 0.0757163L117.392 2.30494L117.332 0.0757163L95.666 0.117778L95.58 2.15353L95.3649 0.117778L73.8966 0.134601L73.7589 1.45531L73.3803 0.134601H63.0291L62.1944 5.77077L61.7212 4.60989L61.5061 4.59306L59.6991 0.134601L49.4683 0.151425L49.2704 1.24501L48.737 0.151425H38.6267L38.3685 1.16089L37.7662 0.151425L27.7419 0.176663L26.5717 4.57624H23.8527L23.3364 6.49422L18.6039 0.176663L8.84639 0.193486L0.5 25.5226L9.36266 33.5478H19.0341L20.5658 27.9117L21.3143 28.7276H23.8957L28.198 33.5478H38.1276L38.3255 32.6393L39.0225 33.5478H49.0381L49.2102 32.5636L49.847 33.5478H59.9573L60.7317 28.2566L63.3302 33.5562H73.5524L73.6729 32.3281L74.1031 33.5478H95.3993L95.4854 31.6299L95.7177 33.5478H117.186L117.384 31.4448L117.47 33.5478H127.993L128.337 32.0757L128.423 33.5478H138.835L139.274 32.2692L139.394 33.5478H149.685L150.219 32.429L150.374 33.5478H160.57L161.181 32.5215L161.362 33.5478H171.472L177.323 25.4132L177.048 24.1094H180.274L184.878 17.8843L188.801 33.531H198.714L207 25.4637L206.845 24.8496L206.208 22.7129L205.606 20.7529L203.489 13.9727C203.197 13.0053 202.878 12.0126 202.603 11.062L202.56 10.9106L206.725 6.00631L204.771 0ZM184.766 1.41325H203.696L205.047 5.56046H199.557L199.592 5.69506C199.815 6.61199 200.073 7.54574 200.323 8.47108C200.581 9.42166 200.882 10.3722 201.158 11.3565L202.07 14.3176C202.388 15.327 202.706 16.3197 203.007 17.3291L203.575 19.1714C203.773 19.7855 203.971 20.4332 204.178 21.0473L204.771 22.9653L205.339 24.8833H196.761L191.366 5.56046H185.859L184.766 1.41325ZM181.711 1.43007L182.761 5.57729H171.618L172.634 10.2881H183.931L185.101 14.9401H173.623L175.74 24.8833L167.178 24.9085L162.79 1.45531L181.711 1.43007ZM159.744 1.45531L163.883 24.9085H155.321L154.211 17.3459H151.002L152.051 24.9085H143.481L140.848 1.47214L159.744 1.45531ZM137.811 1.47214L138.706 10.1535H135.892L136.15 12.7697H138.964L140.212 24.9085H131.667L130.893 15.0158L127.727 14.9401L128.38 24.9085H119.836L118.941 1.48896L137.811 1.47214ZM115.904 1.48896L116.024 5.63617H105.079L104.821 20.1051H116.437L116.584 24.9253H96.2425L97.0514 1.5142L115.904 1.48896ZM94.0226 1.5142L93.8419 5.66141H82.7593L82.3979 10.448L93.6268 10.4648L93.4289 14.9821L81.9849 14.9989L81.6063 20.0631L93.1879 20.0967L92.9728 24.9253H72.6662L75.1873 1.53102L94.0226 1.5142ZM72.1671 1.53102L69.3964 24.9169H60.878L61.9449 17.4805L59.1226 17.3964L59.8368 12.5762L56.7392 12.5174L54.7257 24.9422H46.19L50.6472 1.55626H58.5375L57.8492 5.87172L60.5596 5.95583L59.9056 10.4648L62.9602 10.5068L64.2509 1.54784L72.1671 1.53102ZM28.8519 1.56468H36.7423L31.1665 24.9506H22.6653L25.2208 15.0242H22.149L20.8239 19.8444H15.317L16.6765 15.0242H13.5789L10.5673 24.9506H2.22091L9.89614 1.58991H17.6316L16.3581 5.82966L19.06 5.9306L17.709 10.5237H23.6978L24.9455 5.98107H27.6817L28.8519 1.56468ZM47.627 1.60673L42.9289 25.001H34.419L39.7366 1.63197L47.627 1.60673ZM152.327 5.15668L152.671 7.89064L149.728 7.86541L149.358 5.17351H145.727L146.106 8.13459H149.436L149.591 9.22818H147.93L148.541 13.8212H150.546L150.382 12.265L153.359 12.2482L153.618 13.8212H155.657L154.943 9.26183H153.282L153.144 8.15983L156.552 8.13459L156.078 5.15668H152.327ZM127.133 5.61935L127.443 10.448H130.575L130.205 5.61935H127.133ZM116.842 14.0736L116.997 18.6835L106.534 18.6667L106.628 15.2177H116.756L116.842 14.0736Z" fill="#3C8527"/>
</svg>
