<svg width="516" height="133" viewBox="0 0 516 133" fill="none" xmlns="http://www.w3.org/2000/svg">
<path fill-rule="evenodd" clip-rule="evenodd" d="M6.8401 0.200012H509.16V6.44001H515.4V126.56H509.16V132.8H6.8401V126.56H0.600098V6.44001H6.8401V0.200012Z" fill="#1E1E1F"/>
<path fill-rule="evenodd" clip-rule="evenodd" d="M19.3201 12.68H502.92V18.92L502.92 103.16H496.68V109.4L19.3201 109.4V103.16H13.0801L13.0801 109.4V18.92H19.3201V12.68Z" fill="#3C8527"/>
<path fill-rule="evenodd" clip-rule="evenodd" d="M19.3201 12.68H502.92V18.92L502.92 103.16H496.68V109.4L19.3201 109.4V103.16H13.0801L13.0801 109.4V18.92H19.3201V12.68Z" fill="#3C8527"/>
<path fill-rule="evenodd" clip-rule="evenodd" d="M502.92 12.68H496.68V18.92H502.92V12.68ZM19.3201 103.16H13.0801V109.4H19.3201V103.16Z" fill="#72A763"/>
<path fill-rule="evenodd" clip-rule="evenodd" d="M13.0801 109.4H6.84009V115.64V126.56H509.16L502.92 126.56V120.32H509.16V115.64V109.4H502.92V115.64H13.0801V109.4ZM6.8401 120.32H13.0801V126.56H6.8401V120.32Z" fill="#1D4D13"/>
<path fill-rule="evenodd" clip-rule="evenodd" d="M502.92 12.6801H509.16V109.4H502.92V115.64L13.0801 115.64V109.4L6.84009 109.4L496.68 109.4V103.16H502.92V12.6801Z" fill="#4F913C"/>
<path fill-rule="evenodd" clip-rule="evenodd" d="M509.16 6.44H13.0801V12.68H6.84009V115.64L6.8401 109.4H13.0801V18.92H19.3201V12.68H502.92V6.44001L509.16 6.44Z" fill="#639D52"/>
</svg>
